<?xml version="1.0" encoding="UTF-8"?><svg xmlns="http://www.w3.org/2000/svg" viewBox="0 0 500 500"><defs><style>.c{fill:#48a34a;}</style></defs><g id="a"/><g id="b"><g><path class="c" d="M175.83,258.71v5.09c0,10.52-6.67,17.6-18.45,17.6s-20.68-7.19-20.68-20.87,8.77-21.11,20.75-21.11c8.51,0,13.94,3.74,16.88,8.95l-5.95,3.98c-2.42-3.92-5.7-6.2-11-6.2-7.66,0-12.5,4.85-12.5,14.32s4.84,14.21,12.5,14.21c5.89,0,10.21-2.92,10.6-9.71h-9.23v-6.25h17.08Z"/><path class="c" d="M207.76,264.97c0,10.76-6.22,16.43-14.92,16.43s-14.99-5.67-14.99-16.43,6.22-16.37,14.99-16.37,14.92,5.67,14.92,16.37Zm-22.71,.06c0,6.67,3.07,10.17,7.79,10.17s7.79-3.51,7.79-10.17-3.21-10.17-7.79-10.17-7.79,3.45-7.79,10.17Z"/><path d="M261.08,280.64l-13.94-27.83-14,27.83h-7.98v-40.46h8.12v23.62l12.3-23.62h3.47l12.3,23.85v-23.85h8.12v40.46h-8.38Z"/><path d="M301.28,264.97c0,10.76-6.22,16.43-14.92,16.43s-14.99-5.67-14.99-16.43,6.22-16.37,14.99-16.37,14.92,5.67,14.92,16.37Zm-22.71,.06c0,6.67,3.07,10.17,7.79,10.17s7.79-3.51,7.79-10.17-3.21-10.17-7.79-10.17-7.79,3.45-7.79,10.17Z"/><path d="M322.84,256.43c-1.18-1.05-2.75-1.46-4.71-1.46-2.95,0-5.56,.99-7.33,4.68v20.99h-7.59v-31.28h7.13v3.22c2.35-2.63,5.5-3.98,9.23-3.98,3.08,0,4.97,.94,6.09,1.87l-2.81,5.96Z"/><path d="M356.24,249.36l-11.26,12.04,13.22,19.24h-8.18l-9.69-14.27-5.1,5.44v8.83h-7.59v-40.93l7.59-2.28v25.84l12.89-13.91h8.12Z"/><polygon class="c" points="358.2 222.32 358.2 226.6 298.43 224.45 358.2 222.32"/><polygon class="c" points="348.2 215.94 348.2 220.21 288.43 218.07 348.2 215.94"/><polygon class="c" points="348.2 228.76 348.2 233.04 288.43 230.89 348.2 228.76"/></g></g></svg>